<svg width="463" height="490" viewBox="0 0 463 490" fill="none" xmlns="http://www.w3.org/2000/svg">
<path d="M49.344 38.6252C63.763 24.408 71.8522 14.9381 92.4031 7.05787C101.221 3.64758 110.461 1.44189 119.87 0.499872C129.05 -0.334921 139.476 0.103815 148.798 0.210489L186.517 0.396482L234.58 0.402509C252.173 0.390474 265.275 0.0190224 282.748 2.43642C301.189 4.9222 319.17 10.0475 336.151 17.6553C387.808 40.7816 428.142 83.5235 448.23 136.44C451.118 143.965 461.408 175.884 458.58 182.211C456.873 183.586 457.644 183.184 455.467 183.572C451.337 181.37 450.035 170.175 449.083 165.68C441.058 127.773 420.281 92.4507 392.945 65.1816C361.14 33.5114 319.482 13.6356 274.86 8.83522C259.296 7.23675 241.298 7.74552 225.396 7.74059L164.728 7.78598C166.987 8.88281 169.252 10.286 171.484 11.3243C177.343 14.0448 201.44 32.8002 196.708 40.6257C195.51 41.0475 192.463 40.8052 191.834 39.984C181.818 26.8746 171.473 17.8369 155.494 11.8336C140.609 6.24113 113.07 5.55567 98.065 12.8861L96.2379 14.809C97.2992 15.1974 100.653 14.6049 102.266 14.7647C108.35 15.3692 119.061 13.9961 124.476 16.6695C163.596 24.6996 180.248 46.7899 193.448 82.1291C194.898 86.0109 204.641 116.92 205.27 117.648C207.611 117.9 207.917 117.796 209.652 119.208C211.402 122.255 209.805 125.694 208.836 129.299C211.479 136.013 213.618 143.039 216.063 149.785C224.356 172.621 238.754 192.065 255.696 209.257C257.201 210.783 259.159 212.683 260.489 214.326C262.824 214.803 263.432 214.728 265.111 216.258C265.811 217.76 266.014 218.02 266.134 219.723C270.691 225.112 283.82 236.007 289.373 240.712C326.796 272.437 348.497 315.348 327.595 363.758C326.577 366.113 315.428 387.336 315.428 387.287C313 389.928 305.483 395.92 302.124 397.744C292.277 403.726 284.017 408.058 272.896 411.428C227.852 425.06 169.23 409.775 131.189 384.289C125.04 380.149 119.121 375.669 113.464 370.872C110.505 368.347 101.528 360 98.8145 358.575C96.9271 358.411 96.3363 358.993 94.5803 359.971C94.3724 362.034 94.1263 362.775 95.7565 364.67C100.308 369.943 106.933 375.07 112.37 379.396C143.415 404.263 181.085 419.447 220.696 423.063C238.093 424.721 248.826 423.375 265.576 422.981C257.644 425.875 253.831 427.746 244.963 429.464C214.827 435.306 182.715 430.541 154.104 420.536C114.706 406.756 83.0322 380.834 57.9014 347.973C52.8434 341.359 44.9857 330.385 41.4414 322.923C38.7581 319.438 34.0803 310.187 32.0316 306.011C1.3636 243.495 -10.6867 162.178 11.0764 95.1701C16.5206 78.408 33.8533 46.2357 49.344 38.6252Z" fill="#8FDEF4"/>
<path d="M49.344 38.6252C63.763 24.408 71.8522 14.9381 92.4031 7.05787C101.221 3.64758 110.461 1.44189 119.87 0.499872C129.05 -0.334921 139.476 0.103815 148.798 0.210489L186.517 0.396482L234.581 0.402509C252.174 0.390474 265.275 0.0190225 282.748 2.43642C301.189 4.9222 319.17 10.0475 336.151 17.6553C387.808 40.7816 428.142 83.5235 448.23 136.44C451.118 143.965 461.408 175.884 458.58 182.211C456.873 183.586 457.644 183.184 455.467 183.572C451.337 181.37 450.035 170.175 449.083 165.68C441.058 127.773 420.281 92.4507 392.945 65.1816C361.14 33.5114 319.482 13.6356 274.86 8.83522C259.296 7.23675 241.298 7.74551 225.396 7.74059L164.728 7.78598C166.987 8.88281 169.252 10.286 171.484 11.3243C177.343 14.0448 201.44 32.8002 196.708 40.6257C195.51 41.0475 192.463 40.8052 191.834 39.984C181.818 26.8746 171.473 17.8369 155.494 11.8336C140.609 6.24113 113.071 5.55567 98.065 12.8861C92.6383 14.7203 84.5858 18.4222 79.9086 21.8522C76.8998 23.5283 72.3309 27.1881 69.5579 29.4085L71.3084 29.5519C71.193 30.5737 61.4747 45.2981 59.821 48.472C54.583 58.4502 50.4359 68.9633 47.4518 79.8298C25.7772 157.841 49.7887 262.221 100.319 325.232C135.067 368.561 183.016 396.949 238.612 403.476C254.728 405.369 268.071 404.935 284.039 401.783C288.404 400.921 298.59 397.975 302.124 397.744C292.277 403.726 284.017 408.058 272.896 411.427C227.852 425.06 169.23 409.775 131.189 384.289C125.04 380.148 119.121 375.669 113.464 370.872C110.505 368.347 101.528 360 98.8145 358.575C96.9272 358.411 96.3363 358.993 94.5803 359.971C94.3724 362.034 94.1263 362.775 95.7565 364.67C100.308 369.943 106.933 375.07 112.37 379.396C143.415 404.263 181.085 419.447 220.696 423.063C238.093 424.721 248.826 423.375 265.576 422.981C257.644 425.875 253.831 427.746 244.963 429.464C214.827 435.306 182.715 430.541 154.104 420.536C114.706 406.756 83.0322 380.834 57.9014 347.973C52.8434 341.359 44.9857 330.385 41.4414 322.923C38.7581 319.438 34.0803 310.187 32.0316 306.011C1.3636 243.495 -10.6867 162.178 11.0764 95.1701C16.5206 78.408 33.8533 46.2357 49.344 38.6252Z" fill="#7FBCE7"/>
<path d="M49.344 38.6252C63.763 24.408 71.8522 14.9381 92.4031 7.05787C101.221 3.64758 110.461 1.44189 119.87 0.499872C129.05 -0.334921 139.476 0.103815 148.798 0.210489L186.517 0.396482L234.58 0.402509C252.174 0.390474 265.275 0.0190224 282.748 2.43642C301.189 4.9222 319.17 10.0475 336.151 17.6553C387.808 40.7816 428.142 83.5235 448.23 136.44C451.118 143.965 461.408 175.884 458.58 182.211C456.873 183.586 457.644 183.184 455.467 183.572C451.337 181.37 450.035 170.175 449.083 165.68C441.058 127.773 420.281 92.4507 392.945 65.1816C361.14 33.5114 319.482 13.6356 274.86 8.83522C259.296 7.23675 241.298 7.74552 225.396 7.74059L164.728 7.78598C166.987 8.88281 169.252 10.286 171.484 11.3243C177.343 14.0448 201.44 32.8002 196.708 40.6257C195.51 41.0475 192.463 40.8052 191.834 39.984C181.818 26.8746 171.473 17.8369 155.494 11.8336C140.609 6.24113 113.07 5.55567 98.065 12.8861C92.6383 14.7203 84.5858 18.4222 79.9086 21.8522C76.8998 23.5283 72.3309 27.1881 69.5579 29.4085C36.5907 57.7401 25.2526 95.2095 22.2624 137.557C18.6618 189.947 29.5655 244.416 52.5223 291.611C55.7663 298.281 59.6558 304.65 62.7017 311.388C63.9753 314.203 61.4638 315.808 59.1547 316.478C53.0508 312.152 40.4424 283.052 37.56 275.742C11.6661 210.074 3.99436 132.953 31.4758 66.7423C32.1957 65.7308 33.3806 63.39 33.9889 62.2488C38.4873 53.8096 43.7236 46.3599 49.344 38.6252Z" fill="#020101"/>
<path d="M68.8756 332.913C66.1833 329.015 68.88 328.034 68.88 328.034C75.8383 326.212 80.2249 335.267 82.8635 340.713L82.9752 340.944C83.6104 342.259 82.5671 343.923 82.5671 343.923C82.5671 343.923 82.422 344.449 81.0928 345.163C79.7636 345.877 72.803 338.952 70.2059 334.931C69.7282 334.191 69.2849 333.505 68.8756 332.913Z" fill="#020101"/>
<path d="M205.27 117.648C207.611 117.9 207.917 117.796 209.652 119.208C211.402 122.255 209.805 125.694 208.836 129.299C211.479 136.013 213.618 143.039 216.063 149.785C224.356 172.621 238.754 192.065 255.696 209.257C257.201 210.783 259.159 212.683 260.489 214.326C262.824 214.803 263.432 214.728 265.111 216.258C265.811 217.76 266.014 218.02 266.134 219.723C261.911 223.472 258.289 221.341 253.552 219.82C245.724 217.305 238.897 213.657 232.255 208.753C215.231 196.028 203.902 177.112 200.724 156.097C199.356 146.718 199.586 125.265 205.27 117.648Z" fill="#020101"/>
<path d="M260.489 214.326C222.545 204.751 201.867 166.88 208.836 129.299C211.479 136.013 213.618 143.039 216.063 149.785C224.356 172.621 238.754 192.065 255.696 209.257C257.201 210.783 259.159 212.683 260.489 214.326Z" fill="#8F97F4"/>
<path d="M79.9085 21.8522C84.5858 18.4222 92.6382 14.7204 98.0649 12.8861L96.2378 14.809C97.2991 15.1974 100.653 14.6049 102.266 14.7647C108.349 15.3692 119.061 13.9961 124.476 16.6695C114.608 15.9359 106.21 15.2734 96.298 17.2165C92.6383 17.9332 82.6711 21.9118 79.9085 21.8522Z" fill="#E1E2E4"/>
<path d="M315.428 387.287C335.182 370.377 346.194 346.498 348.279 320.813C350.576 292.488 340.461 271.198 322.321 250.466C309.843 236.201 293.689 222.565 279.553 209.798C255.095 188.245 235.768 162.732 225.882 131.38C221.834 118.542 218.065 105.252 214.006 92.3747C210.084 79.9348 205.855 67.3845 200.445 55.5065C199.487 53.4074 199.318 51.1295 200.696 49.1925C202.671 48.2083 201.659 48.3768 203.836 48.6454C209.624 52.0721 216.052 74.9627 218.601 82.6334C233.661 82.6039 251.654 81.8637 266.473 83.164C294.028 85.5814 322.688 100.045 342.206 119.516C366.402 143.873 380.089 176.735 380.346 211.063C380.352 238.221 370.45 269.387 353.388 290.614C359.619 318.055 354.652 346.849 339.586 370.617C326.966 390.269 311.998 401.448 291.714 412.089C346.698 399.595 392.628 368.687 422.907 320.695C434.712 302.232 443.426 281.966 448.705 260.697C449.92 255.734 450.85 244.436 455.166 242.676C457.278 243.109 456.534 242.855 458.295 244.36C461.391 252.767 447.398 289.794 443.06 299.231C419.373 350.858 376.2 390.998 322.989 410.864C302.95 418.26 286.637 421.154 265.576 422.981C248.826 423.375 238.092 424.721 220.696 423.063C181.085 419.447 143.415 404.263 112.37 379.396C106.933 375.07 100.308 369.943 95.7564 364.67C94.1262 362.775 94.3724 362.034 94.5803 359.971C96.3363 358.993 96.9271 358.411 98.8144 358.575C101.528 360 110.505 368.347 113.464 370.872C119.121 375.669 125.04 380.148 131.189 384.289C169.23 409.775 227.852 425.06 272.896 411.428C284.017 408.058 292.277 403.726 302.124 397.744C305.483 395.92 313 389.927 315.428 387.287Z" fill="#020101"/>
<path d="M220.932 89.9841C252.693 89.8714 275.166 87.3829 304.608 101.784C333.919 116.19 356.211 141.77 366.473 172.774C377.726 205.909 374.159 236.687 358.93 267.653C356.517 272.449 353.508 277.116 350.691 281.7C328.175 228.263 277.42 210.138 248.093 162.059C234.137 139.178 229.11 115.188 220.932 89.9841Z" fill="#FFFFFE"/>
<path d="M206.643 458.298C225.352 457.281 338.328 457.812 340.292 474.48C340.024 475.29 339.799 475.963 339.198 476.592C329.81 486.362 271.643 488.982 256.254 489.726C237.157 490.251 129.104 490.323 121.528 475.257C121.654 473.588 121.774 472.948 122.972 471.723C132.863 461.586 190.992 458.982 206.643 458.298Z" fill="#D6D6D8"/>
<path d="M457.332 195.816C457.967 196.006 460.237 196.655 460.489 197.182C463.716 203.848 462.343 217.628 461.796 224.971C461.555 228.247 460.368 228.734 458.683 230.005C456.627 229.446 456.063 229.489 454.75 227.963C453.946 223.521 454.778 204.904 454.723 199.298C454.706 197.76 456.162 196.703 457.332 195.816Z" fill="#020101"/>
</svg>
